<?xml version="1.0" encoding="UTF-8"?>
<svg width="469px" height="555px" viewBox="0 0 469 555" version="1.1" xmlns="http://www.w3.org/2000/svg" xmlns:xlink="http://www.w3.org/1999/xlink">
    <!-- Generator: Sketch 51.2 (57519) - http://www.bohemiancoding.com/sketch -->
    <title>cora</title>
    <desc>Created with Sketch.</desc>
    <defs></defs>
    <g id="Page-1" stroke="none" stroke-width="1" fill="none" fill-rule="evenodd">
        <g id="Desktop-HD-Copy-2" transform="translate(-725.000000, -361.000000)">
            <g id="cora" transform="translate(725.000000, 361.000000)">
                <g id="Group" transform="translate(0.000000, 453.191781)" fill="#000000">
                    <g id="Group-27" transform="translate(0.500000, 0.589041)">
                        <path d="M76.9042969,66.8985445 L95.0976562,73.4123502 C90.644509,79.574089 87.421885,83.6525121 85.4296875,85.6477419 C75.6444823,95.4478408 63.8379598,100.347817 50.0097656,100.347817 C36.2401655,100.347817 24.4629396,95.4478408 14.6777344,85.6477419 C4.8925292,75.8476429 0,64.02315 0,50.1739084 C0,36.3246668 4.8925292,24.5001739 14.6777344,14.7000749 C24.4629396,4.89997597 36.2401655,0 50.0097656,0 C63.8379598,0 75.6444823,4.89997597 85.4296875,14.7000749 C87.421885,16.6953046 90.644509,20.7150454 95.0976562,26.7594178 L76.9042969,33.4492723 C74.5605352,30.5737941 72.9785197,28.7253002 72.1582031,27.903735 C66.0644227,21.8006794 58.681684,18.7491973 50.0097656,18.7491973 C41.3964413,18.7491973 34.0283509,21.81535 27.9052734,27.9477472 C21.7821959,34.0801445 18.7207031,41.4887908 18.7207031,50.1739084 C18.7207031,58.8003428 21.7821959,66.1796479 27.9052734,72.3120452 C34.0283509,78.4444424 41.3964413,81.510595 50.0097656,81.510595 C58.681684,81.510595 66.0937192,78.459113 72.2460938,72.3560574 C73.0078163,71.5344922 74.5605352,69.7153394 76.9042969,66.8985445 Z" id="c-copy-6"></path>
                        <path d="M189.509766,0 C203.33796,0 215.129834,4.89997597 224.885742,14.7000749 C234.64165,24.5001739 239.519531,36.3246668 239.519531,50.1739084 C239.519531,64.02315 234.64165,75.8476429 224.885742,85.6477419 C215.129834,95.4478408 203.33796,100.347817 189.509766,100.347817 C175.740166,100.347817 163.96294,95.4478408 154.177734,85.6477419 C144.392529,75.8476429 139.5,64.02315 139.5,50.1739084 C139.5,36.3246668 144.392529,24.5001739 154.177734,14.7000749 C163.96294,4.89997597 175.740166,0 189.509766,0 Z M189.509766,18.7491973 C180.837847,18.7491973 173.44046,21.8300206 167.317383,27.9917594 C161.194305,34.1534983 158.132812,41.547474 158.132812,50.1739084 C158.132812,58.859026 161.194305,66.2530017 167.317383,72.3560574 C173.44046,78.459113 180.837847,81.510595 189.509766,81.510595 C198.181684,81.510595 205.579071,78.459113 211.702148,72.3560574 C217.825226,66.2530017 220.886719,58.859026 220.886719,50.1739084 C220.886719,41.547474 217.825226,34.1534983 211.702148,27.9917594 C205.579071,21.8300206 198.181684,18.7491973 189.509766,18.7491973 Z" id="o-copy-3"></path>
                        <path d="M301.693359,19.0308754 C308.490268,9.81760876 316.839794,4.97631513 326.742188,4.50684932 L326.742188,23.4320955 C320.121061,23.7841948 314.847676,25.9261005 310.921875,29.8578767 C305.003877,35.7261994 301.927736,42.7093987 301.693359,50.8076841 L301.693359,97.372592 L283.5,97.372592 L283.5,6.79548373 L301.693359,6.79548373 L301.693359,19.0308754 Z" id="r-copy-3"></path>
                        <path d="M449.595703,56.7757384 L449.595703,43.3960295 C448.54101,37.7037565 445.728538,32.53971 441.158203,27.903735 C435.005829,21.8006794 427.62309,18.7491973 419.009766,18.7491973 C410.337847,18.7491973 402.94046,21.8006794 396.817383,27.903735 C390.694305,34.0067906 387.632812,41.4007664 387.632812,50.085884 C387.632812,58.7123184 390.694305,66.0916235 396.817383,72.2240208 C402.94046,78.356418 410.337847,81.4225706 419.009766,81.4225706 C427.62309,81.4225706 435.005829,78.3710886 441.158203,72.268033 C445.728538,67.632058 448.54101,62.4680115 449.595703,56.7757384 Z M449.595703,13.5557577 L449.595703,7.21800086 L467.876953,7.21800086 L467.876953,97.8831336 L449.595703,97.8831336 L449.595703,86.5279859 C440.806597,95.6238861 430.611386,100.171768 419.009766,100.171768 C405.181571,100.171768 393.389697,95.2864626 383.633789,85.5157053 C373.877881,75.7449479 369,63.9351256 369,50.085884 C369,36.2366424 373.877881,24.42682 383.633789,14.6560627 C393.389697,4.88530538 405.181571,0 419.009766,0 C430.611386,0 440.806597,4.51854072 449.595703,13.5557577 Z" id="a-copy-3"></path>
                    </g>
                </g>
                <g id="Group-14-Copy-2" transform="translate(72.500000, 0.000000)">
                    <g id="Group-40">
                        <path d="M212.166016,293.6875 C214.111121,293.6875 242.702266,293.6875 297.939453,293.6875 C250.625244,317.22078 226.968139,328.081961 226.968139,326.271042 C226.968139,323.554664 209.248358,293.6875 212.166016,293.6875 Z" id="Path-11" fill="#2F90FF"></path>
                        <path d="M83.5797363,63.0953036 C85.5248413,63.0953036 118.150916,44.2578862 181.457959,6.58305151 C150.831106,46.0688049 135.517679,64.9062222 135.517679,63.0953036 C135.517679,60.3789256 80.6620789,63.0953036 83.5797363,63.0953036 Z" id="Path-11-Copy" fill="#2F90FF"></path>
                        <path d="M197.748618,59.3401826 L98.4139252,59.3401826 C88.4028569,59.3401826 79.0627673,64.374204 73.5586674,72.7364029 L1.00064662,182.971429 C-7.81426784,196.36364 -7.89911488,213.695188 0.784256371,227.173062 L73.5881665,340.175481 C79.0661101,348.678059 88.4879814,353.815839 98.6024111,353.815839 L197.748618,353.815839 C214.182542,353.815839 227.504868,340.493512 227.504868,324.059589 C227.504868,319.329199 226.377096,314.666969 224.215081,310.459561 L177.823115,220.178039 C173.436732,211.641877 173.436732,201.514145 177.823115,192.977983 L224.215081,102.696461 C231.726169,88.0794371 225.96567,70.1410581 211.348647,62.6299699 C207.141238,60.4679556 202.479009,59.3401826 197.748618,59.3401826 Z" id="Path-8" fill="#7BB9FF"></path>
                        <path d="M292.548618,0 L193.213925,-1.77635684e-14 C183.202857,-1.5924565e-14 173.862767,5.03402133 168.358667,13.3962203 L91.9539473,129.475411 C85.4774338,139.314966 85.4150948,152.048839 91.7949606,161.951333 L168.388167,280.835299 C173.86611,289.337876 183.287981,294.475656 193.402411,294.475656 L292.548618,294.475656 C308.982542,294.475656 322.304868,281.153329 322.304868,264.719406 C322.304868,259.989016 321.177096,255.326787 319.015081,251.119378 L274.08951,163.691548 C268.782733,153.364245 268.782733,141.111412 274.08951,130.784108 L319.015081,43.3562782 C326.526169,28.7392544 320.76567,10.8008755 306.148647,3.2897873 C301.941238,1.12777293 297.279009,-2.50892375e-14 292.548618,-2.84217094e-14 Z" id="Path-8-Copy" fill="#2570C6"></path>
                        <path d="M209.069383,294.400482 L188.511972,294.511699 C178.434388,294.56622 169.014041,289.516287 163.480919,281.093388 L87.8134505,165.907159 C79.5271567,153.293192 79.9884799,136.849659 88.9689528,124.720111 L137.931066,58.5890411 L190.469041,58.5890411 C195.199431,58.5890411 199.861661,59.716814 204.069069,61.8788284 C218.686093,69.3899166 224.446592,87.3282955 216.935504,101.945319 L170.543538,192.226841 C166.157155,200.763003 166.157155,210.890735 170.543538,219.426897 L209.069383,294.400482 Z" id="Combined-Shape" fill="#2F90FF"></path>
                    </g>
                </g>
            </g>
        </g>
    </g>
</svg>